#usda 1.0
(
    defaultPrim = "support_surfaces"
    metersPerUnit = 1
    upAxis = "Z"
)

def Xform "support_surfaces"
{
    def Cylinder "object_0" (
        prepend apiSchemas = ["PhysicsCollisionAPI"]
    )
    {
        uniform token axis = "Z"
        double height = 0.04
        color3f[] primvars:displayColor = [(0.9073608, 0.5830733, 0.5401777)]
        double radius = 0.08481162225048822
        double3 xformOp:translate = (-1.238603304990316, -0.17362171504790616, 0.7572639538131507)
        uniform token[] xformOpOrder = ["xformOp:translate"]
    }
}

